<mxfile host="app.diagrams.net" modified="2022-10-12T16:28:38.555Z" agent="5.0 (Macintosh; Intel Mac OS X 10_15_7) AppleWebKit/537.36 (KHTML, like Gecko) Chrome/106.0.0.0 Safari/537.36" etag="W1AyP1nlacla9DdCeNqC" version="20.4.0" type="github">
  <diagram id="Gw-AV26mDO8WQlVIWkWP" name="Page-1">
    <mxGraphModel dx="1426" dy="740" grid="1" gridSize="10" guides="1" tooltips="1" connect="1" arrows="1" fold="1" page="1" pageScale="1" pageWidth="850" pageHeight="1100" math="0" shadow="0">
      <root>
        <mxCell id="0" />
        <mxCell id="1" parent="0" />
        <mxCell id="YfXK-TStSKdGH9SV2WM3-1" value="MyBank Progrem&#xa;" style="swimlane;fontStyle=1;align=center;verticalAlign=top;childLayout=stackLayout;horizontal=1;startSize=26;horizontalStack=0;resizeParent=1;resizeParentMax=0;resizeLast=0;collapsible=1;marginBottom=0;fontSize=12;fillColor=#f8cecc;strokeColor=#b85450;labelBackgroundColor=none;fontColor=#000000;" parent="1" vertex="1">
          <mxGeometry x="480" y="10" width="410" height="60" as="geometry" />
        </mxCell>
        <mxCell id="YfXK-TStSKdGH9SV2WM3-3" value="" style="line;strokeWidth=1;fillColor=none;align=left;verticalAlign=middle;spacingTop=-1;spacingLeft=3;spacingRight=3;rotatable=0;labelPosition=right;points=[];portConstraint=eastwest;strokeColor=inherit;fontSize=12;" parent="YfXK-TStSKdGH9SV2WM3-1" vertex="1">
          <mxGeometry y="26" width="410" height="8" as="geometry" />
        </mxCell>
        <mxCell id="YfXK-TStSKdGH9SV2WM3-4" value="+ Main(): Void" style="text;strokeColor=none;fillColor=none;align=left;verticalAlign=top;spacingLeft=4;spacingRight=4;overflow=hidden;rotatable=0;points=[[0,0.5],[1,0.5]];portConstraint=eastwest;fontSize=12;" parent="YfXK-TStSKdGH9SV2WM3-1" vertex="1">
          <mxGeometry y="34" width="410" height="26" as="geometry" />
        </mxCell>
        <mxCell id="YfXK-TStSKdGH9SV2WM3-5" value="BankNumberGenerator" style="swimlane;fontStyle=1;align=center;verticalAlign=top;childLayout=stackLayout;horizontal=1;startSize=26;horizontalStack=0;resizeParent=1;resizeParentMax=0;resizeLast=0;collapsible=1;marginBottom=0;fontSize=14;labelBorderColor=none;fillColor=#ffe6cc;strokeColor=#d79b00;fontColor=#1A1A1A;" parent="1" vertex="1">
          <mxGeometry x="10" y="40" width="370" height="160" as="geometry" />
        </mxCell>
        <mxCell id="YfXK-TStSKdGH9SV2WM3-6" value="+ BankNumberGenerator: _instance" style="text;strokeColor=none;fillColor=none;align=left;verticalAlign=top;spacingLeft=4;spacingRight=4;overflow=hidden;rotatable=0;points=[[0,0.5],[1,0.5]];portConstraint=eastwest;fontSize=14;labelBorderColor=none;" parent="YfXK-TStSKdGH9SV2WM3-5" vertex="1">
          <mxGeometry y="26" width="370" height="26" as="geometry" />
        </mxCell>
        <mxCell id="YfXK-TStSKdGH9SV2WM3-17" value="+ AccountNumber: int" style="text;strokeColor=none;fillColor=none;align=left;verticalAlign=top;spacingLeft=4;spacingRight=4;overflow=hidden;rotatable=0;points=[[0,0.5],[1,0.5]];portConstraint=eastwest;fontSize=14;labelBorderColor=none;" parent="YfXK-TStSKdGH9SV2WM3-5" vertex="1">
          <mxGeometry y="52" width="370" height="26" as="geometry" />
        </mxCell>
        <mxCell id="YfXK-TStSKdGH9SV2WM3-7" value="" style="line;strokeWidth=1;fillColor=none;align=left;verticalAlign=middle;spacingTop=-1;spacingLeft=3;spacingRight=3;rotatable=0;labelPosition=right;points=[];portConstraint=eastwest;strokeColor=inherit;fontSize=14;labelBorderColor=none;" parent="YfXK-TStSKdGH9SV2WM3-5" vertex="1">
          <mxGeometry y="78" width="370" height="8" as="geometry" />
        </mxCell>
        <mxCell id="YfXK-TStSKdGH9SV2WM3-8" value="+ static BankNumberGenerator GetInstance (): _instance&#xa;" style="text;strokeColor=none;fillColor=none;align=left;verticalAlign=top;spacingLeft=4;spacingRight=4;overflow=hidden;rotatable=0;points=[[0,0.5],[1,0.5]];portConstraint=eastwest;fontSize=14;labelBorderColor=none;" parent="YfXK-TStSKdGH9SV2WM3-5" vertex="1">
          <mxGeometry y="86" width="370" height="26" as="geometry" />
        </mxCell>
        <mxCell id="YfXK-TStSKdGH9SV2WM3-19" value="+ string GetNextBankNumber(): string" style="text;strokeColor=none;fillColor=none;align=left;verticalAlign=top;spacingLeft=4;spacingRight=4;overflow=hidden;rotatable=0;points=[[0,0.5],[1,0.5]];portConstraint=eastwest;fontSize=14;labelBorderColor=none;" parent="YfXK-TStSKdGH9SV2WM3-5" vertex="1">
          <mxGeometry y="112" width="370" height="48" as="geometry" />
        </mxCell>
        <mxCell id="YfXK-TStSKdGH9SV2WM3-40" value="" style="edgeStyle=orthogonalEdgeStyle;rounded=0;orthogonalLoop=1;jettySize=auto;html=1;fontSize=13;" parent="1" source="YfXK-TStSKdGH9SV2WM3-9" target="YfXK-TStSKdGH9SV2WM3-4" edge="1">
          <mxGeometry relative="1" as="geometry" />
        </mxCell>
        <mxCell id="YfXK-TStSKdGH9SV2WM3-9" value="BankAccount" style="swimlane;fontStyle=1;align=center;verticalAlign=top;childLayout=stackLayout;horizontal=1;startSize=26;horizontalStack=0;resizeParent=1;resizeParentMax=0;resizeLast=0;collapsible=1;marginBottom=0;fontSize=12;fillColor=#e1d5e7;strokeColor=#9673a6;fontColor=#1A1A1A;" parent="1" vertex="1">
          <mxGeometry x="470" y="120" width="430" height="242" as="geometry" />
        </mxCell>
        <mxCell id="YfXK-TStSKdGH9SV2WM3-25" value="+ Number:  string" style="text;strokeColor=none;fillColor=none;align=left;verticalAlign=top;spacingLeft=4;spacingRight=4;overflow=hidden;rotatable=0;points=[[0,0.5],[1,0.5]];portConstraint=eastwest;fontSize=13;" parent="YfXK-TStSKdGH9SV2WM3-9" vertex="1">
          <mxGeometry y="26" width="430" height="26" as="geometry" />
        </mxCell>
        <mxCell id="YfXK-TStSKdGH9SV2WM3-24" value="+ Owner: string" style="text;strokeColor=none;fillColor=none;align=left;verticalAlign=top;spacingLeft=4;spacingRight=4;overflow=hidden;rotatable=0;points=[[0,0.5],[1,0.5]];portConstraint=eastwest;fontSize=13;" parent="YfXK-TStSKdGH9SV2WM3-9" vertex="1">
          <mxGeometry y="52" width="430" height="26" as="geometry" />
        </mxCell>
        <mxCell id="YfXK-TStSKdGH9SV2WM3-23" value="+ _allTransactions:  List&lt;Transaction&gt;" style="text;strokeColor=none;fillColor=none;align=left;verticalAlign=top;spacingLeft=4;spacingRight=4;overflow=hidden;rotatable=0;points=[[0,0.5],[1,0.5]];portConstraint=eastwest;fontSize=13;" parent="YfXK-TStSKdGH9SV2WM3-9" vertex="1">
          <mxGeometry y="78" width="430" height="26" as="geometry" />
        </mxCell>
        <mxCell id="YfXK-TStSKdGH9SV2WM3-10" value="+ Balance: decimal" style="text;strokeColor=none;fillColor=none;align=left;verticalAlign=top;spacingLeft=4;spacingRight=4;overflow=hidden;rotatable=0;points=[[0,0.5],[1,0.5]];portConstraint=eastwest;fontSize=13;" parent="YfXK-TStSKdGH9SV2WM3-9" vertex="1">
          <mxGeometry y="104" width="430" height="26" as="geometry" />
        </mxCell>
        <mxCell id="YfXK-TStSKdGH9SV2WM3-11" value="" style="line;strokeWidth=1;fillColor=none;align=left;verticalAlign=middle;spacingTop=-1;spacingLeft=3;spacingRight=3;rotatable=0;labelPosition=right;points=[];portConstraint=eastwest;strokeColor=inherit;fontSize=12;" parent="YfXK-TStSKdGH9SV2WM3-9" vertex="1">
          <mxGeometry y="130" width="430" height="8" as="geometry" />
        </mxCell>
        <mxCell id="YfXK-TStSKdGH9SV2WM3-26" value="+ BanckAccount(name: string, initialDeposite): void" style="text;strokeColor=none;fillColor=none;align=left;verticalAlign=top;spacingLeft=4;spacingRight=4;overflow=hidden;rotatable=0;points=[[0,0.5],[1,0.5]];portConstraint=eastwest;fontSize=13;" parent="YfXK-TStSKdGH9SV2WM3-9" vertex="1">
          <mxGeometry y="138" width="430" height="26" as="geometry" />
        </mxCell>
        <mxCell id="YfXK-TStSKdGH9SV2WM3-28" value="+ MakeDeposit(amount: decimal, date: DateTime, note: string): void" style="text;strokeColor=none;fillColor=none;align=left;verticalAlign=top;spacingLeft=4;spacingRight=4;overflow=hidden;rotatable=0;points=[[0,0.5],[1,0.5]];portConstraint=eastwest;fontSize=13;" parent="YfXK-TStSKdGH9SV2WM3-9" vertex="1">
          <mxGeometry y="164" width="430" height="26" as="geometry" />
        </mxCell>
        <mxCell id="YfXK-TStSKdGH9SV2WM3-27" value="+ MakeWithdrawal(amount: decimal, date: DateTime, note: string): void" style="text;strokeColor=none;fillColor=none;align=left;verticalAlign=top;spacingLeft=4;spacingRight=4;overflow=hidden;rotatable=0;points=[[0,0.5],[1,0.5]];portConstraint=eastwest;fontSize=13;" parent="YfXK-TStSKdGH9SV2WM3-9" vertex="1">
          <mxGeometry y="190" width="430" height="26" as="geometry" />
        </mxCell>
        <mxCell id="YfXK-TStSKdGH9SV2WM3-12" value="+ GetTransactionHistory(): string" style="text;strokeColor=none;fillColor=none;align=left;verticalAlign=top;spacingLeft=4;spacingRight=4;overflow=hidden;rotatable=0;points=[[0,0.5],[1,0.5]];portConstraint=eastwest;fontSize=13;" parent="YfXK-TStSKdGH9SV2WM3-9" vertex="1">
          <mxGeometry y="216" width="430" height="26" as="geometry" />
        </mxCell>
        <mxCell id="YfXK-TStSKdGH9SV2WM3-39" value="" style="edgeStyle=orthogonalEdgeStyle;rounded=0;orthogonalLoop=1;jettySize=auto;html=1;fontSize=13;exitX=1.009;exitY=0.038;exitDx=0;exitDy=0;exitPerimeter=0;entryX=0.386;entryY=1.008;entryDx=0;entryDy=0;entryPerimeter=0;" parent="1" source="YfXK-TStSKdGH9SV2WM3-12" target="YfXK-TStSKdGH9SV2WM3-16" edge="1">
          <mxGeometry relative="1" as="geometry">
            <mxPoint x="910" y="240" as="sourcePoint" />
            <mxPoint x="1070" y="250" as="targetPoint" />
            <Array as="points">
              <mxPoint x="1120" y="337" />
              <mxPoint x="1120" y="250" />
              <mxPoint x="1119" y="250" />
            </Array>
          </mxGeometry>
        </mxCell>
        <mxCell id="YfXK-TStSKdGH9SV2WM3-13" value="Transaction" style="swimlane;fontStyle=1;align=center;verticalAlign=top;childLayout=stackLayout;horizontal=1;startSize=26;horizontalStack=0;resizeParent=1;resizeParentMax=0;resizeLast=0;collapsible=1;marginBottom=0;fontSize=13;labelBorderColor=none;fillColor=#dae8fc;strokeColor=#6c8ebf;fontColor=#1A1A1A;" parent="1" vertex="1">
          <mxGeometry x="980" y="15" width="360" height="230" as="geometry">
            <mxRectangle x="470" y="300" width="110" height="30" as="alternateBounds" />
          </mxGeometry>
        </mxCell>
        <mxCell id="YfXK-TStSKdGH9SV2WM3-14" value="+ Amount: decimal" style="text;strokeColor=none;fillColor=none;align=left;verticalAlign=top;spacingLeft=4;spacingRight=4;overflow=hidden;rotatable=0;points=[[0,0.5],[1,0.5]];portConstraint=eastwest;labelBackgroundColor=default;fontSize=13;labelBorderColor=none;" parent="YfXK-TStSKdGH9SV2WM3-13" vertex="1">
          <mxGeometry y="26" width="360" height="26" as="geometry" />
        </mxCell>
        <mxCell id="YfXK-TStSKdGH9SV2WM3-20" value="+  Date: DateTime&#xa; " style="text;strokeColor=none;fillColor=none;align=left;verticalAlign=top;spacingLeft=4;spacingRight=4;overflow=hidden;rotatable=0;points=[[0,0.5],[1,0.5]];portConstraint=eastwest;fontSize=13;labelBorderColor=none;" parent="YfXK-TStSKdGH9SV2WM3-13" vertex="1">
          <mxGeometry y="52" width="360" height="26" as="geometry" />
        </mxCell>
        <mxCell id="YfXK-TStSKdGH9SV2WM3-21" value="+ Notes: string&#xa; " style="text;strokeColor=none;fillColor=none;align=left;verticalAlign=top;spacingLeft=4;spacingRight=4;overflow=hidden;rotatable=0;points=[[0,0.5],[1,0.5]];portConstraint=eastwest;fontSize=13;labelBorderColor=none;" parent="YfXK-TStSKdGH9SV2WM3-13" vertex="1">
          <mxGeometry y="78" width="360" height="26" as="geometry" />
        </mxCell>
        <mxCell id="YfXK-TStSKdGH9SV2WM3-15" value="" style="line;strokeWidth=1;fillColor=none;align=left;verticalAlign=middle;spacingTop=-1;spacingLeft=3;spacingRight=3;rotatable=0;labelPosition=right;points=[];portConstraint=eastwest;strokeColor=inherit;fontSize=12;labelBorderColor=none;" parent="YfXK-TStSKdGH9SV2WM3-13" vertex="1">
          <mxGeometry y="104" width="360" height="8" as="geometry" />
        </mxCell>
        <mxCell id="YfXK-TStSKdGH9SV2WM3-16" value="+ Transaction(&#xa;    amount: decimal,&#xa;    date: DateTime,&#xa;    note: string&#xa;): void" style="text;strokeColor=none;fillColor=none;align=left;verticalAlign=top;spacingLeft=4;spacingRight=4;overflow=hidden;rotatable=0;points=[[0,0.5],[1,0.5]];portConstraint=eastwest;fontSize=13;labelBorderColor=none;" parent="YfXK-TStSKdGH9SV2WM3-13" vertex="1">
          <mxGeometry y="112" width="360" height="118" as="geometry" />
        </mxCell>
        <mxCell id="YfXK-TStSKdGH9SV2WM3-38" value="" style="edgeStyle=orthogonalEdgeStyle;rounded=0;orthogonalLoop=1;jettySize=auto;html=1;fontSize=13;entryX=1;entryY=0.5;entryDx=0;entryDy=0;" parent="1" source="YfXK-TStSKdGH9SV2WM3-26" target="YfXK-TStSKdGH9SV2WM3-19" edge="1">
          <mxGeometry relative="1" as="geometry">
            <mxPoint x="460" y="250" as="sourcePoint" />
            <mxPoint x="410" y="130" as="targetPoint" />
          </mxGeometry>
        </mxCell>
      </root>
    </mxGraphModel>
  </diagram>
</mxfile>
